# xmcd CD database file
#
# Track frame offsets:
#	150
#	14625
#	26437
#	41402
#
# Disc length: 746 seconds
#
# Revision: 0
# Processed by: cddbd v1.5.1PL2 Copyright (c) Steve Scherf et al.
# Submitted via: CDex 1.50
#
DISCID=2702e804
DTITLE=Slim Dusty - Slim Dusty - Live
DYEAR=1900
DGENRE=Country
TTITLE0=The Saddle Is His Home (Live)
TTITLE1=A Pub With No Beer (Live)
TTITLE2=Iron Bark Jim (Live)
TTITLE3=Indian Pacific (Live)
EXTD=
EXTT0=
EXTT1=
EXTT2=
EXTT3=
PLAYORDER=
